<?xml version="1.0" standalone="no"?>
<!DOCTYPE svg PUBLIC "-//W3C//DTD SVG 20010904//EN"
 "http://www.w3.org/TR/2001/REC-SVG-20010904/DTD/svg10.dtd">
<svg version="1.0" xmlns="http://www.w3.org/2000/svg"
 width="700.000000pt" height="700.000000pt" viewBox="0 0 700.000000 700.000000"
 preserveAspectRatio="xMidYMid meet">
<metadata>
Created by potrace 1.11, written by Peter Selinger 2001-2013
</metadata>
<g transform="translate(0.000000,700.000000) scale(0.100000,-0.100000)"
fill="#000000" stroke="none">
<path d="M6110 6985 c-139 -30 -263 -94 -385 -199 -33 -28 -217 -191 -410
-362 -192 -170 -627 -553 -965 -849 -1037 -908 -1285 -1139 -1466 -1361 -172
-211 -235 -362 -254 -598 -15 -204 14 -411 85 -591 l28 -70 414 -345 c227
-190 428 -355 446 -367 87 -60 444 -71 638 -20 128 33 231 77 336 144 502 315
1000 1043 2083 3046 195 361 262 507 307 664 24 86 27 115 27 238 0 129 -2
146 -28 215 -55 144 -143 254 -273 340 -170 113 -389 156 -583 115z"/>
<path d="M2145 2763 c-566 -73 -947 -374 -1171 -923 -46 -112 -88 -160 -157
-180 -62 -17 -105 -9 -200 40 -104 53 -352 221 -586 399 l-34 26 6 -175 c21
-571 192 -1067 490 -1418 123 -145 282 -270 457 -358 266 -133 515 -181 883
-171 354 10 603 70 875 212 424 221 684 596 773 1115 14 78 19 403 7 431 -3 9
-274 240 -601 513 l-595 496 -58 -1 c-33 -1 -72 -4 -89 -6z"/>
</g>
</svg>
